<?xml version="1.0" encoding="UTF-8"?>
<!DOCTYPE svg  PUBLIC '-//W3C//DTD SVG 1.1//EN'  'http://www.w3.org/Graphics/SVG/1.1/DTD/svg11.dtd'>
<svg enable-background="new 0 0 425.963 425.963" version="1.1" viewBox="0 0 425.96 425.96" xml:space="preserve" xmlns="http://www.w3.org/2000/svg">

	<path d="m213.28 0h-0.608c-73.563 0-133.41 59.826-133.41 133.36 0 48.202 21.952 111.82 65.246 189.08 32.098 57.281 64.646 101.15 64.972 101.59 0.906 1.217 2.334 1.934 3.847 1.934 0.043 0 0.087 0 0.13-2e-3 1.561-0.043 3.002-0.842 3.868-2.143 0.321-0.486 32.637-49.287 64.517-108.98 43.03-80.563 64.848-141.62 64.848-181.48-3e-3 -73.536-59.85-133.36-133.41-133.36zm61.58 136.62c0 34.124-27.761 61.884-61.885 61.884-34.123 0-61.884-27.761-61.884-61.884s27.761-61.884 61.884-61.884c34.124 0 61.885 27.761 61.885 61.884z" fill="#8a0001"/>

</svg>
