<svg viewBox="0 0 425.96 425.96" xmlns="http://www.w3.org/2000/svg"><path d="M213.28 0h-.608c-73.563 0-133.41 59.826-133.41 133.36 0 48.202 21.952 111.82 65.246 189.08 32.098 57.281 64.646 101.15 64.972 101.59a4.8 4.8 0 003.847 1.934c.043 0 .087 0 .13-.002a4.805 4.805 0 003.868-2.143c.321-.486 32.637-49.287 64.517-108.98 43.03-80.563 64.848-141.62 64.848-181.48-.003-73.536-59.85-133.36-133.41-133.36zm61.58 136.62c0 34.124-27.761 61.884-61.885 61.884-34.123 0-61.884-27.761-61.884-61.884s27.761-61.884 61.884-61.884c34.124 0 61.885 27.761 61.885 61.884z" fill="#8a0001"/></svg>