<?xml version="1.0" encoding="UTF-8"?>
<svg viewBox="0 0 20 16" xmlns="http://www.w3.org/2000/svg">
<path d="m19.713 15.31c-0.506 0.726-1.512 0.908-2.243 0.405l-6.629-4.551c-0.469-0.321-0.712-0.845-0.694-1.371-0.854 0.908-1.975 1.518-3.231 1.745-1.543 0.279-3.102-0.055-4.388-0.938-1.287-0.883-2.15-2.211-2.432-3.741-0.281-1.531 0.055-3.078 0.946-4.356 1.84-2.637 5.5-3.299 8.16-1.473 2.414 1.658 3.185 4.804 1.93 7.344 0.491-0.205 1.072-0.164 1.544 0.159l6.63 4.551c0.732 0.503 0.915 1.5 0.407 2.226zm-9.826-10.221c-0.196-1.067-0.798-1.994-1.695-2.609-1.853-1.274-4.407-0.813-5.691 1.026-1.283 1.841-0.818 4.373 1.036 5.645 1.853 1.274 4.406 0.814 5.691-1.026 0.621-0.891 0.855-1.969 0.659-3.036z" fill="#817d7d" fill-rule="evenodd"/>
</svg>
