<svg viewBox="0 0 20 16" xmlns="http://www.w3.org/2000/svg"><path d="M19.713 15.31a1.62 1.62 0 01-2.243.405l-6.629-4.551a1.592 1.592 0 01-.694-1.371 5.836 5.836 0 01-3.231 1.745 5.863 5.863 0 01-4.388-.938A5.777 5.777 0 01.096 6.859a5.749 5.749 0 01.946-4.356c1.84-2.637 5.5-3.299 8.16-1.473a5.802 5.802 0 011.93 7.344 1.622 1.622 0 011.544.159l6.63 4.551c.732.503.915 1.5.407 2.226zM9.887 5.089A4.025 4.025 0 008.192 2.48c-1.853-1.274-4.407-.813-5.691 1.026a4.042 4.042 0 001.036 5.645c1.853 1.274 4.406.814 5.691-1.026a4.006 4.006 0 00.659-3.036z" fill="#817d7d" fill-rule="evenodd"/></svg>